<svg xmlns="http://www.w3.org/2000/svg" fill="rgba(255, 255, 255, 1)" viewBox="0 0 48 48" width="256" height="256">
    <path fill="none" d="M 0 0 h 48 v 48 H 0 Z m 36.62 12 L 31.1 22 Z" />
    <path d="M 22 18 h 4 v -6 h 6 V 8 h -6 V 2 h -4 v 6 h -6 v 4 h 6 v 6 Z m -8 18 c -2.21 0 -3.98 1.79 -3.98 4 s 1.77 4 3.98 4 s 4 -1.79 4 -4 s -1.79 -4 -4 -4 Z m 20 0 c -2.21 0 -3.98 1.79 -3.98 4 s 1.77 4 3.98 4 s 4 -1.79 4 -4 s -1.79 -4 -4 -4 Z m -19.65 -6.5 c 0 -0.09 0.02 -0.17 0.06 -0.24 l 1.8 -3.26 h 14.9 c 1.5 0 2.81 -0.83 3.5 -2.06 l 7.72 -14.02 L 38.83 8 h -0.01 l -2.21 4 l -5.51 10 H 17.07 l -0.26 -0.54 L 12.32 12 l -1.9 -4 l -1.89 -4 H 2 v 4 h 4 l 7.2 15.17 l -2.71 4.9 c -0.31 0.58 -0.49 1.23 -0.49 1.93 c 0 2.21 1.79 4 4 4 h 24 v -4 H 14.85 c -0.28 0 -0.5 -0.22 -0.5 -0.5 Z" />
</svg>